<svg xmlns="http://www.w3.org/2000/svg" width="512" height="512" viewBox="0 0 512 512" version="1.1">
	<path d="M 179.020 72.752 C 168.818 77.877, 168.347 92.319, 178.206 97.701 C 181.294 99.387, 186.169 99.500, 256 99.500 C 325.831 99.500, 330.706 99.387, 333.794 97.701 C 343.653 92.319, 343.182 77.877, 332.980 72.752 C 329.761 71.134, 323.982 71.003, 256 71.003 C 188.018 71.003, 182.239 71.134, 179.020 72.752 M 250.728 157.289 C 245.372 159.009, 240.097 163.574, 237.916 168.377 C 236.453 171.600, 236.039 174.921, 236.022 183.591 L 236 194.682 230.678 195.873 C 227.751 196.528, 220.663 199.363, 214.928 202.172 C 192.757 213.034, 180.086 231.897, 180.017 254.145 C 179.992 262.524, 183.296 271.960, 188.788 279.185 C 198.147 291.498, 213.485 300.532, 250.500 315.532 C 283.205 328.785, 294.801 336.083, 299.628 346.448 C 303.641 355.065, 302.327 363.075, 295.658 370.652 C 290.954 375.995, 286.692 378.825, 278.500 382.046 C 273.167 384.143, 270.832 384.411, 257.500 384.453 C 236.286 384.520, 229.032 382.135, 206.571 367.714 C 193.434 359.279, 188.608 357.566, 182.387 359.133 C 177.604 360.337, 172.492 365.192, 171.392 369.573 C 170.117 374.653, 171.559 381.498, 174.937 386.409 C 182.920 398.011, 206.438 410.085, 228.750 414.036 L 236 415.320 236 427.503 C 236 438.326, 236.260 440.177, 238.327 444.093 C 241.802 450.676, 247.588 454.315, 255.364 454.810 C 262.309 455.253, 266.263 453.848, 271.339 449.136 C 276.416 444.423, 277.318 441.479, 277.931 427.633 L 278.500 414.766 286 412.908 C 290.125 411.886, 298.197 408.697, 303.937 405.822 C 322.684 396.433, 334.610 381.774, 338.521 363.315 C 342.417 344.929, 338.558 329.738, 327 317.967 C 316.048 306.813, 300.662 298.552, 268.500 286.556 C 246.565 278.375, 231.951 271.423, 226.114 266.392 C 216.145 257.799, 215.379 245.532, 224.187 235.525 C 231.063 227.713, 241.784 224.030, 257.701 224.012 C 274.924 223.992, 282.437 226.456, 298.415 237.365 C 303.701 240.974, 309.775 244.452, 311.913 245.092 C 322.653 248.310, 334 240.940, 334 230.746 C 334 225.932, 329.502 217.588, 324.662 213.425 C 316.216 206.160, 301.357 199.403, 285.373 195.559 L 278.246 193.845 277.817 182.638 C 277.452 173.119, 277.020 170.765, 274.944 167.007 C 270.508 158.975, 259.381 154.510, 250.728 157.289" stroke="none" fill="black" fill-rule="evenodd"/>
</svg>