<svg xmlns="http://www.w3.org/2000/svg" width="512" height="512" viewBox="0 0 512 512" version="1.1">
	<path d="M 200.589 133.077 C 196.967 137.381, 197.092 142.246, 200.923 146.077 L 203.846 149 256 149 L 308.154 149 311.077 146.077 C 314.908 142.246, 315.033 137.381, 311.411 133.077 L 308.822 130 256 130 L 203.178 130 200.589 133.077 M 248.898 190.270 C 243.921 193.595, 242.003 198.167, 242.002 206.711 L 242 213.923 237.177 215.355 C 223.915 219.293, 212.245 228.675, 207.407 239.288 C 205.024 244.516, 204.570 246.847, 204.538 254 C 204.504 261.595, 204.816 263.071, 207.473 267.867 C 213.146 278.111, 224.960 285.852, 250.308 295.937 C 279.079 307.384, 287 313.442, 287 324 C 287 331.268, 282.369 337.150, 273.500 341.145 C 269.703 342.856, 266.091 343.496, 258.488 343.804 C 249.743 344.158, 247.513 343.886, 240.868 341.655 C 233.625 339.224, 231.432 338.092, 217.559 329.626 C 211.174 325.729, 207.507 325.169, 203.145 327.425 C 197.866 330.155, 196.347 338.589, 200.053 344.586 C 204.441 351.686, 218.431 359.487, 233.285 363.117 L 242 365.247 242 372.656 C 242 380.950, 243.455 385.312, 247.452 389 C 249.748 391.119, 251.128 391.500, 256.500 391.500 C 261.872 391.500, 263.252 391.119, 265.548 389 C 269.597 385.264, 271 380.960, 271 372.269 L 271 364.473 276.250 363.244 C 284.374 361.342, 295.437 355.418, 301.019 349.981 C 304.119 346.962, 307.325 342.424, 309.291 338.275 C 312.269 331.987, 312.500 330.745, 312.500 321 C 312.500 308.508, 311.194 305.092, 303.513 297.500 C 295.233 289.315, 289.217 286.269, 256.248 273.567 C 232.882 264.564, 226.375 257.055, 231.985 245.566 C 235.600 238.162, 244.806 234, 257.570 234 C 267.316 234, 274.925 236.539, 284.460 242.973 C 293.424 249.022, 298.642 250.271, 303.805 247.601 C 307.702 245.585, 309 243.241, 309 238.216 C 309 232.760, 304.794 227.372, 296.907 222.724 C 290.641 219.032, 276.822 214, 272.948 214 C 271.197 214, 271 213.269, 270.998 206.750 C 270.996 194.862, 265.690 188, 256.500 188 C 253.794 188, 251.085 188.809, 248.898 190.270" stroke="none" fill="black" fill-rule="evenodd"/>
</svg>